<?xml version="1.0" encoding="UTF-8"?><svg width="50" height="51" viewBox="0 0 50 51" fill="none" xmlns="http://www.w3.org/2000/svg">
<path fill-rule="evenodd" clip-rule="evenodd" d="M19.0227 19.0772L20.5502 21.2166L23.9303 25.9549C23.9368 25.9653 23.9487 25.9679 23.9552 25.9757C24.2013 26.3025 24.5855 26.503 24.9999 26.503C25.4157 26.503 25.7999 26.3038 26.0459 25.9757C26.0525 25.9679 26.0656 25.9653 26.0709 25.9549L29.4509 21.2166L30.9784 19.0772L41.9697 25.5759L24.9999 35.6112L8.03142 25.5759L19.0227 19.0772ZM25.0017 8.80298C27.3331 8.80298 29.229 10.6793 29.229 12.9853C29.229 15.2913 27.3331 17.1676 25.0017 17.1676C22.6716 17.1676 20.777 15.2913 20.777 12.9853C20.777 10.6793 22.6716 8.80298 25.0017 8.80298V8.80298ZM40.5007 29.4692L45.1951 26.6932C45.5924 26.4575 45.8332 26.0343 45.8332 25.5786C45.8332 25.1229 45.5924 24.6997 45.1951 24.464L32.4342 16.9197C33.763 14.4978 33.8169 11.6632 32.5249 9.15013C31.1237 6.42355 28.3674 4.67745 25.2926 4.55505C25.1992 4.53683 25.1044 4.53032 24.9992 4.53422C24.8966 4.5238 24.8045 4.53683 24.711 4.55505C21.635 4.67615 18.8773 6.42225 17.4747 9.15013C16.184 11.6632 16.2367 14.4978 17.5655 16.9197L4.80461 24.464C4.40859 24.6997 4.1665 25.1229 4.1665 25.5786C4.1665 26.0343 4.40859 26.4575 4.80461 26.6932L9.49901 29.4692L4.80461 32.244C4.40859 32.4784 4.1665 32.9015 4.1665 33.3573C4.1665 33.8117 4.40859 34.2362 4.80461 34.4693L24.3282 46.0149C24.5347 46.1373 24.7676 46.1972 24.9992 46.1972C25.2334 46.1972 25.4636 46.1373 25.6715 46.0149L45.1951 34.4693C45.5924 34.2362 45.8332 33.8117 45.8332 33.3573C45.8332 32.9015 45.5924 32.4784 45.1951 32.244L40.5007 29.4692Z" fill="#FF3300"/>
</svg>
