<svg width="24" height="24" viewBox="0 0 24 24" fill="none" xmlns="http://www.w3.org/2000/svg">
<g id="new_releases">
<mask id="mask0_6684_7445" style="mask-type:alpha" maskUnits="userSpaceOnUse" x="0" y="0" width="24" height="24">
<rect id="Bounding box" width="24" height="24" fill="#D9D9D9"/>
</mask>
<g mask="url(#mask0_6684_7445)">
<path id="new_releases_2" d="M8.1502 21.7501L6.7002 19.3001L3.9502 18.7001C3.7002 18.6501 3.5002 18.521 3.3502 18.3126C3.2002 18.1043 3.14186 17.8751 3.1752 17.6251L3.4502 14.8001L1.5752 12.6501C1.40853 12.4668 1.3252 12.2501 1.3252 12.0001C1.3252 11.7501 1.40853 11.5335 1.5752 11.3501L3.4502 9.20012L3.1752 6.37512C3.14186 6.12512 3.2002 5.89595 3.3502 5.68762C3.5002 5.47929 3.7002 5.35012 3.9502 5.30012L6.7002 4.70012L8.1502 2.25012C8.28353 2.03345 8.46686 1.88762 8.7002 1.81262C8.93353 1.73762 9.16686 1.75012 9.4002 1.85012L12.0002 2.95012L14.6002 1.85012C14.8335 1.75012 15.0669 1.73762 15.3002 1.81262C15.5335 1.88762 15.7169 2.03345 15.8502 2.25012L17.3002 4.70012L20.0502 5.30012C20.3002 5.35012 20.5002 5.47929 20.6502 5.68762C20.8002 5.89595 20.8585 6.12512 20.8252 6.37512L20.5502 9.20012L22.4252 11.3501C22.5919 11.5335 22.6752 11.7501 22.6752 12.0001C22.6752 12.2501 22.5919 12.4668 22.4252 12.6501L20.5502 14.8001L20.8252 17.6251C20.8585 17.8751 20.8002 18.1043 20.6502 18.3126C20.5002 18.521 20.3002 18.6501 20.0502 18.7001L17.3002 19.3001L15.8502 21.7501C15.7169 21.9668 15.5335 22.1126 15.3002 22.1876C15.0669 22.2626 14.8335 22.2501 14.6002 22.1501L12.0002 21.0501L9.4002 22.1501C9.16686 22.2501 8.93353 22.2626 8.7002 22.1876C8.46686 22.1126 8.28353 21.9668 8.1502 21.7501ZM9.4502 19.9501L12.0002 18.8501L14.6002 19.9501L16.0002 17.5501L18.7502 16.9001L18.5002 14.1001L20.3502 12.0001L18.5002 9.85012L18.7502 7.05012L16.0002 6.45012L14.5502 4.05012L12.0002 5.15012L9.4002 4.05012L8.0002 6.45012L5.2502 7.05012L5.5002 9.85012L3.6502 12.0001L5.5002 14.1001L5.2502 16.9501L8.0002 17.5501L9.4502 19.9501ZM10.9502 12.7001L9.5002 11.2751C9.31686 11.0918 9.0877 11.0001 8.8127 11.0001C8.5377 11.0001 8.3002 11.1001 8.1002 11.3001C7.91686 11.4835 7.8252 11.7168 7.8252 12.0001C7.8252 12.2835 7.91686 12.5168 8.1002 12.7001L10.2502 14.8501C10.4502 15.0501 10.6835 15.1501 10.9502 15.1501C11.2169 15.1501 11.4502 15.0501 11.6502 14.8501L15.9002 10.6001C16.1002 10.4001 16.196 10.1668 16.1877 9.90012C16.1794 9.63345 16.0835 9.40012 15.9002 9.20012C15.7002 9.00012 15.4627 8.89595 15.1877 8.88762C14.9127 8.87929 14.6752 8.97512 14.4752 9.17512L10.9502 12.7001Z" fill="#7384D8"/>
</g>
</g>
</svg>
